M48
METRIC,LZ,000.000
;FILE_FORMAT=3:3
;TYPE=PLATED
;Layer: PTH_Through
;EasyEDA v6.5.22, 2023-04-12 12:18:29
;10
;Gerber Generator version 0.2
;Holesize 1 = 0.701 mm
T01C0.701
;Holesize 2 = 0.889 mm
T02C0.889
;Holesize 3 = 0.900 mm
T03C0.900
;Holesize 4 = 0.915 mm
T04C0.915
;Holesize 5 = 1.101 mm
T05C1.101
;Holesize 6 = 1.200 mm
T06C1.200
%
G05
G90
T01
X073279Y058166
X072009Y058166
X070739Y058166
X062103Y058166
X060833Y058166
X059563Y058166
X045720Y058166
X044450Y058166
X043180Y058166
X034544Y058166
X033274Y058166
X032004Y058166
T02
X062611Y048895
X065151Y048895
X067691Y048895
X070231Y048895
X072771Y048895
X035052Y048895
X037592Y048895
X040132Y048895
X042672Y048895
X045212Y048895
X079883Y094107
X077343Y094107
X074803Y094107
X072263Y094107
X069723Y094107
X067183Y094107
X064643Y094107
X062103Y094107
X059563Y094107
X057023Y094107
X054483Y094107
X051943Y094107
X049403Y094107
X046863Y094107
X044323Y094107
X044323Y063500
X046863Y063500
X049403Y063500
X051943Y063500
X054483Y063500
X057023Y063500
X059563Y063500
X062103Y063500
X064643Y063500
X067183Y063500
X069723Y063500
X072263Y063500
X074803Y063500
X077343Y063500
X079883Y063500
X044323Y088900
X046863Y088900
X049403Y088900
X051943Y088900
X054483Y088900
X057023Y088900
X059563Y088900
X062103Y088900
X064643Y088900
X067183Y088900
X069723Y088900
X072263Y088900
X074803Y088900
X077343Y088900
X079883Y088900
X028448Y076327
X028448Y073787
X028448Y094107
X028448Y091567
X028448Y079502
X028448Y082042
X028448Y065532
X028448Y068072
T03
X080010Y057658
X080010Y050038
X055372Y050165
X055372Y057785
X052451Y050165
X052451Y057785
X027940Y050292
X027940Y057912
X031115Y084201
X038735Y084201
X031115Y079883
X038735Y079883
X048133Y071501
X055753Y071501
X058293Y071501
X065913Y071501
X068453Y071501
X076073Y071501
X031242Y065913
X038862Y065913
X031242Y070231
X038862Y070231
T04
X028448Y084582
X028448Y070612
T05
X069012Y080228
X069012Y075728
X075514Y080228
X075514Y075728
X058852Y080228
X058852Y075728
X065354Y080228
X065354Y075728
X048692Y080228
X048692Y075728
X055194Y080228
X055194Y075728
T06
X036322Y093594
X033782Y093604
X038862Y093594
X073279Y053345
X075819Y053335
X070739Y053345
X062103Y053345
X064643Y053335
X059563Y053345
X034544Y053345
X037084Y053335
X032004Y053345
X045720Y053345
X048260Y053335
X043180Y053345
M30
