G04 Layer: TopLayer*
G04 EasyEDA v6.5.22, 2023-04-12 12:18:29*
G04 Gerber Generator version 0.2*
G04 Scale: 100 percent, Rotated: No, Reflected: No *
G04 Dimensions in millimeters *
G04 leading zeros omitted , absolute positions ,4 integer and 5 decimal *
%FSLAX45Y45*%
%MOMM*%

%ADD10C,0.9000*%
%ADD11C,0.3000*%
%ADD12C,1.5748*%
%ADD13C,1.8000*%
%ADD14O,0.8999982X1.5999968*%
%ADD15C,1.8796*%
%ADD16O,1.7999964X2.5999948*%
%ADD17O,0.0187X2.5999948*%

%LPD*%
D10*
X7551420Y8022844D02*
G01*
X7192263Y8382000D01*
X7187948Y8382000D01*
X6535420Y8022844D02*
G01*
X6176263Y8382000D01*
X6171948Y8382000D01*
X5519420Y8022844D02*
G01*
X5165354Y8376909D01*
X5165354Y8382000D01*
X4869179Y8022844D02*
G01*
X4510024Y8382000D01*
X4506836Y8382000D01*
X5885179Y8022844D02*
G01*
X5526024Y8382000D01*
X5522836Y8382000D01*
X6901179Y8022844D02*
G01*
X6542024Y8382000D01*
X6538836Y8382000D01*
X3873500Y7988300D02*
G01*
X4267200Y8382000D01*
X4305300Y8382000D01*
X3759197Y4889497D02*
G01*
X3517900Y4648200D01*
X3514448Y4648200D01*
X4521197Y4889497D02*
G01*
X4279900Y4648200D01*
X4279900Y4648200D01*
D11*
X2794000Y5791200D02*
G01*
X2794000Y5880100D01*
X2921000Y6007100D01*
X3200400Y6007100D01*
X3327400Y5880100D01*
X3327400Y5816600D01*
D10*
X2628900Y6311900D02*
G01*
X2628900Y4864100D01*
X2844800Y4648200D01*
X3454400Y4648200D01*
X3454400Y5334507D02*
G01*
X3454400Y5270500D01*
X3632200Y5092700D01*
X3810000Y5092700D01*
X4013200Y4889500D01*
X6210300Y5334507D02*
G01*
X6210300Y5270500D01*
X6350000Y5130800D01*
X6527800Y5130800D01*
X6769100Y4889500D01*
X3454400Y4648200D02*
G01*
X6273800Y4648200D01*
X6515100Y4889500D01*
X6273800Y4648200D02*
G01*
X7035800Y4648200D01*
X7277100Y4889500D01*
X3886200Y7023100D02*
G01*
X3886200Y7391400D01*
X3644900Y7632700D01*
X2844800Y6807200D02*
G01*
X3670300Y6807200D01*
X3886200Y7023100D01*
X2844800Y7632700D02*
G01*
X3644900Y7632700D01*
X3873500Y7861300D01*
X3873500Y7988300D01*
X2844800Y8204200D02*
G01*
X3657600Y8204200D01*
X3873500Y7988300D01*
X2844800Y9410700D02*
G01*
X2997200Y9563100D01*
X3682491Y9563100D01*
X3886200Y9359392D01*
X2844800Y9410700D02*
G01*
X2628900Y9194800D01*
X2628900Y6311900D01*
D11*
X5194300Y6350000D02*
G01*
X5194300Y6604000D01*
X5295900Y6705600D01*
X6400800Y6705600D01*
X6845300Y7150100D01*
X4317974Y5334507D02*
G01*
X4444997Y5461530D01*
X4444997Y5816597D01*
X7988300Y8890000D02*
G01*
X7988300Y9410700D01*
X7734300Y8890000D02*
G01*
X7734300Y9410700D01*
X7480300Y8890000D02*
G01*
X7480300Y9410700D01*
X7226300Y8890000D02*
G01*
X7226300Y9410700D01*
X6972300Y8890000D02*
G01*
X6972300Y9410700D01*
X6718300Y8890000D02*
G01*
X6718300Y9410700D01*
X6464300Y8890000D02*
G01*
X6464300Y9410700D01*
X6210300Y8890000D02*
G01*
X6210300Y9410700D01*
X5956300Y8890000D02*
G01*
X5956300Y9410700D01*
X5702300Y8890000D02*
G01*
X5702300Y9410700D01*
X5448300Y8890000D02*
G01*
X5448300Y9410700D01*
X5194300Y8890000D02*
G01*
X5194300Y9410700D01*
X4940300Y8890000D02*
G01*
X4940300Y9410700D01*
X4686300Y8890000D02*
G01*
X4686300Y9410700D01*
X4432300Y8890000D02*
G01*
X4432300Y9410700D01*
X4686300Y6350000D02*
G01*
X4686300Y7023100D01*
X4813300Y7150100D01*
X4940300Y6350000D02*
G01*
X4940300Y6731000D01*
X5080000Y6870700D01*
X5549900Y6870700D01*
X5829300Y7150100D01*
X7073900Y5334507D02*
G01*
X7200900Y5461507D01*
X7200900Y5816600D01*
X5956300Y5334507D02*
G01*
X6083300Y5461507D01*
X6083300Y5816600D01*
X3327400Y5816600D02*
G01*
X3327400Y5461533D01*
X3200374Y5334507D01*
X5702300Y6350000D02*
G01*
X5486400Y6134100D01*
X3581400Y6134100D01*
X3327400Y5880100D01*
X3327400Y5816600D01*
X5537200Y5778500D02*
G01*
X5753100Y5994400D01*
X5969000Y5994400D01*
X6083300Y5880100D01*
X6083300Y5816600D01*
X5245100Y5778500D02*
G01*
X5511800Y6045200D01*
X5651500Y6045200D01*
X5956300Y6350000D01*
X4445000Y5816600D02*
G01*
X4445000Y5867400D01*
X4572000Y5994400D01*
X5029200Y5994400D01*
X5245100Y5778500D01*
X6083300Y5816600D02*
G01*
X6083300Y5867400D01*
X6210300Y5994400D01*
X6362700Y5994400D01*
X6718300Y6350000D01*
X7200900Y5816600D02*
G01*
X7200900Y6070600D01*
X7480300Y6350000D01*
X7480300Y6350000D02*
G01*
X8001000Y5829300D01*
X8001000Y5765800D01*
X6901179Y7572755D02*
G01*
X6901179Y7205979D01*
X6845300Y7150100D01*
X5885179Y7572755D02*
G01*
X5885179Y7205979D01*
X5829300Y7150100D01*
X4869179Y7572755D02*
G01*
X4869179Y7205979D01*
X4813300Y7150100D01*
D10*
X7988300Y6350000D02*
G01*
X7988300Y8001000D01*
X7607300Y8382000D01*
X4292600Y8382000D01*
X3835400Y8839200D01*
X3657600Y8839200D01*
X3378200Y9118600D01*
X3378200Y9360408D01*
D12*
G01*
X6261100Y4889500D03*
G01*
X6515100Y4889500D03*
G01*
X6769100Y4889500D03*
G01*
X7023100Y4889500D03*
G01*
X7277100Y4889500D03*
G01*
X3505200Y4889500D03*
G01*
X3759200Y4889500D03*
G01*
X4013200Y4889500D03*
G01*
X4267200Y4889500D03*
G01*
X4521200Y4889500D03*
G01*
X7988300Y9410700D03*
G01*
X7734300Y9410700D03*
G01*
X7480300Y9410700D03*
G01*
X7226300Y9410700D03*
G01*
X6972300Y9410700D03*
G01*
X6718300Y9410700D03*
G01*
X6464300Y9410700D03*
G01*
X6210300Y9410700D03*
G01*
X5956300Y9410700D03*
G01*
X5702300Y9410700D03*
G01*
X5448300Y9410700D03*
G01*
X5194300Y9410700D03*
G01*
X4940300Y9410700D03*
G01*
X4686300Y9410700D03*
G01*
X4432300Y9410700D03*
G01*
X4432300Y6350000D03*
G01*
X4686300Y6350000D03*
G01*
X4940300Y6350000D03*
G01*
X5194300Y6350000D03*
G01*
X5448300Y6350000D03*
G01*
X5702300Y6350000D03*
G01*
X5956300Y6350000D03*
G01*
X6210300Y6350000D03*
G01*
X6464300Y6350000D03*
G01*
X6718300Y6350000D03*
G01*
X6972300Y6350000D03*
G01*
X7226300Y6350000D03*
G01*
X7480300Y6350000D03*
G01*
X7734300Y6350000D03*
G01*
X7988300Y6350000D03*
G01*
X4432300Y8890000D03*
G01*
X4686300Y8890000D03*
G01*
X4940300Y8890000D03*
G01*
X5194300Y8890000D03*
G01*
X5448300Y8890000D03*
G01*
X5702300Y8890000D03*
G01*
X5956300Y8890000D03*
G01*
X6210300Y8890000D03*
G01*
X6464300Y8890000D03*
G01*
X6718300Y8890000D03*
G01*
X6972300Y8890000D03*
G01*
X7226300Y8890000D03*
G01*
X7480300Y8890000D03*
G01*
X7734300Y8890000D03*
G01*
X7988300Y8890000D03*
G01*
X2844800Y7632700D03*
G01*
X2844800Y7378700D03*
G01*
X2844800Y9410700D03*
G01*
X2844800Y9156700D03*
D13*
G01*
X6901179Y8022844D03*
G01*
X6901179Y7572755D03*
G01*
X7551420Y8022844D03*
G01*
X7551420Y7572755D03*
G01*
X5885179Y8022844D03*
G01*
X5885179Y7572755D03*
G01*
X6535420Y8022844D03*
G01*
X6535420Y7572755D03*
G01*
X4869179Y8022844D03*
G01*
X4869179Y7572755D03*
G01*
X5519420Y8022844D03*
G01*
X5519420Y7572755D03*
D14*
G01*
X7327900Y5816600D03*
G01*
X7200900Y5816600D03*
G01*
X7073900Y5816600D03*
G01*
X6210300Y5816600D03*
G01*
X6083300Y5816600D03*
G01*
X5956300Y5816600D03*
G01*
X4572000Y5816600D03*
G01*
X4445000Y5816600D03*
G01*
X4318000Y5816600D03*
G01*
X3454400Y5816600D03*
G01*
X3327400Y5816600D03*
G01*
X3200400Y5816600D03*
D15*
G01*
X8001000Y5765800D03*
G01*
X8001000Y5003800D03*
G01*
X5537200Y5016500D03*
G01*
X5537200Y5778500D03*
G01*
X5245100Y5016500D03*
G01*
X5245100Y5778500D03*
G01*
X2794000Y5029200D03*
G01*
X2794000Y5791200D03*
G01*
X3111500Y8420100D03*
G01*
X3873500Y8420100D03*
G01*
X3111500Y7988300D03*
G01*
X3873500Y7988300D03*
G01*
X4813300Y7150100D03*
G01*
X5575300Y7150100D03*
G01*
X5829300Y7150100D03*
G01*
X6591300Y7150100D03*
G01*
X6845300Y7150100D03*
G01*
X7607300Y7150100D03*
G01*
X3124200Y6591300D03*
G01*
X3886200Y6591300D03*
G01*
X3124200Y7023100D03*
G01*
X3886200Y7023100D03*
D12*
G01*
X2844800Y7950200D03*
G01*
X2844800Y8204200D03*
G01*
X2844800Y8458200D03*
G01*
X2844800Y6553200D03*
G01*
X2844800Y6807200D03*
G01*
X2844800Y7061200D03*
D16*
G01*
X3632200Y9359417D03*
G01*
X3378174Y9360408D03*
G01*
X3886200Y9359392D03*
G01*
X7327900Y5334482D03*
G01*
X7581925Y5333492D03*
G01*
X7073900Y5334507D03*
G01*
X6210300Y5334482D03*
G01*
X6464325Y5333492D03*
G01*
X5956300Y5334507D03*
G01*
X3454374Y5334507D03*
G01*
X3708400Y5333517D03*
G01*
X3200374Y5334507D03*
G01*
X4571974Y5334507D03*
G01*
X4826000Y5333517D03*
G01*
X4317974Y5334507D03*
M02*
