G04 Layer: TopSolderMaskLayer*
G04 EasyEDA v6.5.22, 2023-04-12 12:18:29*
G04 Gerber Generator version 0.2*
G04 Scale: 100 percent, Rotated: No, Reflected: No *
G04 Dimensions in millimeters *
G04 leading zeros omitted , absolute positions ,4 integer and 5 decimal *
%FSLAX45Y45*%
%MOMM*%

%ADD10C,1.6764*%
%ADD11C,1.9016*%
%ADD12O,1.0015981999999999X1.7015968*%
%ADD13C,1.9812*%
%ADD14O,1.9015964X2.7015948*%

%LPD*%
D10*
G01*
X6261100Y4889500D03*
G01*
X6515100Y4889500D03*
G01*
X6769100Y4889500D03*
G01*
X7023100Y4889500D03*
G01*
X7277100Y4889500D03*
G01*
X3505200Y4889500D03*
G01*
X3759200Y4889500D03*
G01*
X4013200Y4889500D03*
G01*
X4267200Y4889500D03*
G01*
X4521200Y4889500D03*
G01*
X7988300Y9410700D03*
G01*
X7734300Y9410700D03*
G01*
X7480300Y9410700D03*
G01*
X7226300Y9410700D03*
G01*
X6972300Y9410700D03*
G01*
X6718300Y9410700D03*
G01*
X6464300Y9410700D03*
G01*
X6210300Y9410700D03*
G01*
X5956300Y9410700D03*
G01*
X5702300Y9410700D03*
G01*
X5448300Y9410700D03*
G01*
X5194300Y9410700D03*
G01*
X4940300Y9410700D03*
G01*
X4686300Y9410700D03*
G01*
X4432300Y9410700D03*
G01*
X4432300Y6350000D03*
G01*
X4686300Y6350000D03*
G01*
X4940300Y6350000D03*
G01*
X5194300Y6350000D03*
G01*
X5448300Y6350000D03*
G01*
X5702300Y6350000D03*
G01*
X5956300Y6350000D03*
G01*
X6210300Y6350000D03*
G01*
X6464300Y6350000D03*
G01*
X6718300Y6350000D03*
G01*
X6972300Y6350000D03*
G01*
X7226300Y6350000D03*
G01*
X7480300Y6350000D03*
G01*
X7734300Y6350000D03*
G01*
X7988300Y6350000D03*
G01*
X4432300Y8890000D03*
G01*
X4686300Y8890000D03*
G01*
X4940300Y8890000D03*
G01*
X5194300Y8890000D03*
G01*
X5448300Y8890000D03*
G01*
X5702300Y8890000D03*
G01*
X5956300Y8890000D03*
G01*
X6210300Y8890000D03*
G01*
X6464300Y8890000D03*
G01*
X6718300Y8890000D03*
G01*
X6972300Y8890000D03*
G01*
X7226300Y8890000D03*
G01*
X7480300Y8890000D03*
G01*
X7734300Y8890000D03*
G01*
X7988300Y8890000D03*
G01*
X2844800Y7632700D03*
G01*
X2844800Y7378700D03*
G01*
X2844800Y9410700D03*
G01*
X2844800Y9156700D03*
D11*
G01*
X6901179Y8022844D03*
G01*
X6901179Y7572755D03*
G01*
X7551420Y8022844D03*
G01*
X7551420Y7572755D03*
G01*
X5885179Y8022844D03*
G01*
X5885179Y7572755D03*
G01*
X6535420Y8022844D03*
G01*
X6535420Y7572755D03*
G01*
X4869179Y8022844D03*
G01*
X4869179Y7572755D03*
G01*
X5519420Y8022844D03*
G01*
X5519420Y7572755D03*
D12*
G01*
X7327900Y5816600D03*
G01*
X7200900Y5816600D03*
G01*
X7073900Y5816600D03*
G01*
X6210300Y5816600D03*
G01*
X6083300Y5816600D03*
G01*
X5956300Y5816600D03*
G01*
X4572000Y5816600D03*
G01*
X4445000Y5816600D03*
G01*
X4318000Y5816600D03*
G01*
X3454400Y5816600D03*
G01*
X3327400Y5816600D03*
G01*
X3200400Y5816600D03*
D13*
G01*
X8001000Y5765800D03*
G01*
X8001000Y5003800D03*
G01*
X5537200Y5016500D03*
G01*
X5537200Y5778500D03*
G01*
X5245100Y5016500D03*
G01*
X5245100Y5778500D03*
G01*
X2794000Y5029200D03*
G01*
X2794000Y5791200D03*
G01*
X3111500Y8420100D03*
G01*
X3873500Y8420100D03*
G01*
X3111500Y7988300D03*
G01*
X3873500Y7988300D03*
G01*
X4813300Y7150100D03*
G01*
X5575300Y7150100D03*
G01*
X5829300Y7150100D03*
G01*
X6591300Y7150100D03*
G01*
X6845300Y7150100D03*
G01*
X7607300Y7150100D03*
G01*
X3124200Y6591300D03*
G01*
X3886200Y6591300D03*
G01*
X3124200Y7023100D03*
G01*
X3886200Y7023100D03*
D10*
G01*
X2844800Y7950200D03*
G01*
X2844800Y8204200D03*
G01*
X2844800Y8458200D03*
G01*
X2844800Y6553200D03*
G01*
X2844800Y6807200D03*
G01*
X2844800Y7061200D03*
D14*
G01*
X3632200Y9359417D03*
G01*
X3378174Y9360408D03*
G01*
X3886200Y9359392D03*
G01*
X7327900Y5334482D03*
G01*
X7581925Y5333492D03*
G01*
X7073900Y5334507D03*
G01*
X6210300Y5334482D03*
G01*
X6464325Y5333492D03*
G01*
X5956300Y5334507D03*
G01*
X3454374Y5334507D03*
G01*
X3708400Y5333517D03*
G01*
X3200374Y5334507D03*
G01*
X4571974Y5334507D03*
G01*
X4826000Y5333517D03*
G01*
X4317974Y5334507D03*
M02*
