G04 Layer: TopSilkscreenLayer*
G04 EasyEDA v6.5.22, 2023-04-12 12:18:29*
G04 Gerber Generator version 0.2*
G04 Scale: 100 percent, Rotated: No, Reflected: No *
G04 Dimensions in millimeters *
G04 leading zeros omitted , absolute positions ,4 integer and 5 decimal *
%FSLAX45Y45*%
%MOMM*%

%ADD10C,0.1524*%
%ADD11C,0.2032*%
%ADD12C,0.2030*%
%ADD13C,0.2030*%
%ADD14C,0.2540*%
%ADD15C,0.4000*%
%ADD16C,0.0159*%

%LPD*%
D10*
X6716522Y4647692D02*
G01*
X6721856Y4637278D01*
X6732270Y4626863D01*
X6742429Y4621784D01*
X6763258Y4621784D01*
X6773672Y4626863D01*
X6784086Y4637278D01*
X6789420Y4647692D01*
X6794500Y4663439D01*
X6794500Y4689347D01*
X6789420Y4704842D01*
X6784086Y4715255D01*
X6773672Y4725670D01*
X6763258Y4730750D01*
X6742429Y4730750D01*
X6732270Y4725670D01*
X6721856Y4715255D01*
X6716522Y4704842D01*
X6682231Y4621784D02*
G01*
X6682231Y4730750D01*
X6609588Y4621784D02*
G01*
X6609588Y4730750D01*
X6682231Y4673600D02*
G01*
X6609588Y4673600D01*
X6575297Y4767326D02*
G01*
X6481825Y4767326D01*
X6447536Y4642612D02*
G01*
X6437122Y4637278D01*
X6421374Y4621784D01*
X6421374Y4730750D01*
X6293611Y4600955D02*
G01*
X6387084Y4767326D01*
X6254241Y4647692D02*
G01*
X6254241Y4642612D01*
X6248908Y4632197D01*
X6243827Y4626863D01*
X6233413Y4621784D01*
X6212586Y4621784D01*
X6202172Y4626863D01*
X6197091Y4632197D01*
X6191758Y4642612D01*
X6191758Y4653026D01*
X6197091Y4663439D01*
X6207506Y4678934D01*
X6259322Y4730750D01*
X6186677Y4730750D01*
X3960622Y4647692D02*
G01*
X3965956Y4637278D01*
X3976370Y4626863D01*
X3986529Y4621784D01*
X4007358Y4621784D01*
X4017772Y4626863D01*
X4028186Y4637278D01*
X4033520Y4647692D01*
X4038600Y4663439D01*
X4038600Y4689347D01*
X4033520Y4704842D01*
X4028186Y4715255D01*
X4017772Y4725670D01*
X4007358Y4730750D01*
X3986529Y4730750D01*
X3976370Y4725670D01*
X3965956Y4715255D01*
X3960622Y4704842D01*
X3926331Y4621784D02*
G01*
X3926331Y4730750D01*
X3853688Y4621784D02*
G01*
X3853688Y4730750D01*
X3926331Y4673600D02*
G01*
X3853688Y4673600D01*
X3819397Y4767326D02*
G01*
X3725925Y4767326D01*
X3681222Y4621784D02*
G01*
X3624072Y4621784D01*
X3655059Y4663439D01*
X3639565Y4663439D01*
X3629152Y4668520D01*
X3624072Y4673600D01*
X3618738Y4689347D01*
X3618738Y4699762D01*
X3624072Y4715255D01*
X3634486Y4725670D01*
X3649979Y4730750D01*
X3665474Y4730750D01*
X3681222Y4725670D01*
X3686302Y4720589D01*
X3691636Y4710176D01*
X3490975Y4600955D02*
G01*
X3584447Y4767326D01*
X3404870Y4621784D02*
G01*
X3456686Y4694428D01*
X3378708Y4694428D01*
X3404870Y4621784D02*
G01*
X3404870Y4730750D01*
X6159500Y9233915D02*
G01*
X6159500Y9124950D01*
X6232143Y9233915D02*
G01*
X6232143Y9124950D01*
X6159500Y9182100D02*
G01*
X6232143Y9182100D01*
X6266434Y9213087D02*
G01*
X6276847Y9218421D01*
X6292595Y9233915D01*
X6292595Y9124950D01*
X6146800Y6630415D02*
G01*
X6146800Y6521450D01*
X6219443Y6630415D02*
G01*
X6219443Y6521450D01*
X6146800Y6578600D02*
G01*
X6219443Y6578600D01*
X6316218Y6630415D02*
G01*
X6264147Y6630415D01*
X6259068Y6583679D01*
X6264147Y6588760D01*
X6279895Y6594094D01*
X6295390Y6594094D01*
X6310884Y6588760D01*
X6321297Y6578600D01*
X6326631Y6562852D01*
X6326631Y6552437D01*
X6321297Y6536944D01*
X6310884Y6526529D01*
X6295390Y6521450D01*
X6279895Y6521450D01*
X6264147Y6526529D01*
X6259068Y6531610D01*
X6253734Y6542023D01*
X6235700Y8596884D02*
G01*
X6235700Y8705850D01*
X6163056Y8596884D02*
G01*
X6163056Y8705850D01*
X6235700Y8648700D02*
G01*
X6163056Y8648700D01*
X6066281Y8612378D02*
G01*
X6071615Y8601963D01*
X6087109Y8596884D01*
X6097524Y8596884D01*
X6113018Y8601963D01*
X6123431Y8617712D01*
X6128765Y8643620D01*
X6128765Y8669528D01*
X6123431Y8690355D01*
X6113018Y8700770D01*
X6097524Y8705850D01*
X6092190Y8705850D01*
X6076695Y8700770D01*
X6066281Y8690355D01*
X6061202Y8674862D01*
X6061202Y8669528D01*
X6066281Y8654034D01*
X6076695Y8643620D01*
X6092190Y8638539D01*
X6097524Y8638539D01*
X6113018Y8643620D01*
X6123431Y8654034D01*
X6128765Y8669528D01*
X2577084Y7493000D02*
G01*
X2686050Y7534655D01*
X2577084Y7576058D02*
G01*
X2686050Y7534655D01*
X2602991Y7688326D02*
G01*
X2592577Y7683245D01*
X2582163Y7672831D01*
X2577084Y7662418D01*
X2577084Y7641589D01*
X2582163Y7631176D01*
X2592577Y7620762D01*
X2602991Y7615681D01*
X2618740Y7610347D01*
X2644647Y7610347D01*
X2660141Y7615681D01*
X2670556Y7620762D01*
X2680970Y7631176D01*
X2686050Y7641589D01*
X2686050Y7662418D01*
X2680970Y7672831D01*
X2670556Y7683245D01*
X2660141Y7688326D01*
X2602991Y7800594D02*
G01*
X2592577Y7795260D01*
X2582163Y7785100D01*
X2577084Y7774686D01*
X2577084Y7753858D01*
X2582163Y7743444D01*
X2592577Y7733029D01*
X2602991Y7727950D01*
X2618740Y7722615D01*
X2644647Y7722615D01*
X2660141Y7727950D01*
X2670556Y7733029D01*
X2680970Y7743444D01*
X2686050Y7753858D01*
X2686050Y7774686D01*
X2680970Y7785100D01*
X2670556Y7795260D01*
X2660141Y7800594D01*
X2577084Y9283700D02*
G01*
X2686050Y9283700D01*
X2577084Y9283700D02*
G01*
X2577084Y9330436D01*
X2582163Y9345929D01*
X2587497Y9351263D01*
X2597911Y9356344D01*
X2613406Y9356344D01*
X2623820Y9351263D01*
X2628900Y9345929D01*
X2634234Y9330436D01*
X2634234Y9283700D01*
X2577084Y9390634D02*
G01*
X2686050Y9416795D01*
X2577084Y9442704D02*
G01*
X2686050Y9416795D01*
X2577084Y9442704D02*
G01*
X2686050Y9468612D01*
X2577084Y9494520D02*
G01*
X2686050Y9468612D01*
X2577084Y9528810D02*
G01*
X2686050Y9528810D01*
X2577084Y9528810D02*
G01*
X2577084Y9575800D01*
X2582163Y9591294D01*
X2587497Y9596374D01*
X2597911Y9601708D01*
X2608325Y9601708D01*
X2618740Y9596374D01*
X2623820Y9591294D01*
X2628900Y9575800D01*
X2628900Y9528810D01*
X2628900Y9565386D02*
G01*
X2686050Y9601708D01*
X7200900Y8268715D02*
G01*
X7200900Y8159750D01*
X7273543Y8268715D02*
G01*
X7200900Y8196071D01*
X7226808Y8221979D02*
G01*
X7273543Y8159750D01*
X7307834Y8268715D02*
G01*
X7307834Y8159750D01*
X7307834Y8268715D02*
G01*
X7375397Y8268715D01*
X7307834Y8216900D02*
G01*
X7349490Y8216900D01*
X7307834Y8159750D02*
G01*
X7375397Y8159750D01*
X7409688Y8268715D02*
G01*
X7451343Y8216900D01*
X7451343Y8159750D01*
X7493000Y8268715D02*
G01*
X7451343Y8216900D01*
X7527290Y8247887D02*
G01*
X7537450Y8253221D01*
X7553197Y8268715D01*
X7553197Y8159750D01*
X6184900Y8268715D02*
G01*
X6184900Y8159750D01*
X6257543Y8268715D02*
G01*
X6184900Y8196071D01*
X6210808Y8221979D02*
G01*
X6257543Y8159750D01*
X6291834Y8268715D02*
G01*
X6291834Y8159750D01*
X6291834Y8268715D02*
G01*
X6359397Y8268715D01*
X6291834Y8216900D02*
G01*
X6333490Y8216900D01*
X6291834Y8159750D02*
G01*
X6359397Y8159750D01*
X6393688Y8268715D02*
G01*
X6435343Y8216900D01*
X6435343Y8159750D01*
X6477000Y8268715D02*
G01*
X6435343Y8216900D01*
X6516370Y8242808D02*
G01*
X6516370Y8247887D01*
X6521450Y8258302D01*
X6526784Y8263636D01*
X6537197Y8268715D01*
X6558025Y8268715D01*
X6568440Y8263636D01*
X6573520Y8258302D01*
X6578600Y8247887D01*
X6578600Y8237473D01*
X6573520Y8227060D01*
X6563106Y8211565D01*
X6511290Y8159750D01*
X6583934Y8159750D01*
X5168900Y8268715D02*
G01*
X5168900Y8159750D01*
X5241543Y8268715D02*
G01*
X5168900Y8196071D01*
X5194808Y8221979D02*
G01*
X5241543Y8159750D01*
X5275834Y8268715D02*
G01*
X5275834Y8159750D01*
X5275834Y8268715D02*
G01*
X5343397Y8268715D01*
X5275834Y8216900D02*
G01*
X5317490Y8216900D01*
X5275834Y8159750D02*
G01*
X5343397Y8159750D01*
X5377688Y8268715D02*
G01*
X5419343Y8216900D01*
X5419343Y8159750D01*
X5461000Y8268715D02*
G01*
X5419343Y8216900D01*
X5505450Y8268715D02*
G01*
X5562600Y8268715D01*
X5531611Y8227060D01*
X5547106Y8227060D01*
X5557520Y8221979D01*
X5562600Y8216900D01*
X5567934Y8201152D01*
X5567934Y8190737D01*
X5562600Y8175244D01*
X5552440Y8164829D01*
X5536691Y8159750D01*
X5521197Y8159750D01*
X5505450Y8164829D01*
X5500370Y8169910D01*
X5495290Y8180323D01*
X7562341Y6008115D02*
G01*
X7551927Y6003036D01*
X7541513Y5992621D01*
X7536179Y5982207D01*
X7531100Y5966460D01*
X7531100Y5940552D01*
X7536179Y5925057D01*
X7541513Y5914644D01*
X7551927Y5904229D01*
X7562341Y5899150D01*
X7583170Y5899150D01*
X7593329Y5904229D01*
X7603743Y5914644D01*
X7609077Y5925057D01*
X7614158Y5940552D01*
X7614158Y5966460D01*
X7609077Y5982207D01*
X7603743Y5992621D01*
X7593329Y6003036D01*
X7583170Y6008115D01*
X7562341Y6008115D01*
X7577836Y5919723D02*
G01*
X7609077Y5888736D01*
X7648447Y5987287D02*
G01*
X7658861Y5992621D01*
X7674609Y6008115D01*
X7674609Y5899150D01*
X6406641Y6020815D02*
G01*
X6396227Y6015736D01*
X6385813Y6005321D01*
X6380479Y5994907D01*
X6375400Y5979160D01*
X6375400Y5953252D01*
X6380479Y5937757D01*
X6385813Y5927344D01*
X6396227Y5916929D01*
X6406641Y5911850D01*
X6427470Y5911850D01*
X6437629Y5916929D01*
X6448043Y5927344D01*
X6453377Y5937757D01*
X6458458Y5953252D01*
X6458458Y5979160D01*
X6453377Y5994907D01*
X6448043Y6005321D01*
X6437629Y6015736D01*
X6427470Y6020815D01*
X6406641Y6020815D01*
X6422136Y5932423D02*
G01*
X6453377Y5901436D01*
X6498081Y5994907D02*
G01*
X6498081Y5999987D01*
X6503161Y6010402D01*
X6508495Y6015736D01*
X6518909Y6020815D01*
X6539484Y6020815D01*
X6549897Y6015736D01*
X6555231Y6010402D01*
X6560311Y5999987D01*
X6560311Y5989573D01*
X6555231Y5979160D01*
X6544818Y5963665D01*
X6492747Y5911850D01*
X6565645Y5911850D01*
X4742944Y6058918D02*
G01*
X4732530Y6053838D01*
X4722116Y6043424D01*
X4716782Y6033010D01*
X4711702Y6017262D01*
X4711702Y5991354D01*
X4716782Y5975860D01*
X4722116Y5965446D01*
X4732530Y5955032D01*
X4742944Y5949952D01*
X4763772Y5949952D01*
X4773932Y5955032D01*
X4784346Y5965446D01*
X4789680Y5975860D01*
X4794760Y5991354D01*
X4794760Y6017262D01*
X4789680Y6033010D01*
X4784346Y6043424D01*
X4773932Y6053838D01*
X4763772Y6058918D01*
X4742944Y6058918D01*
X4758438Y5970526D02*
G01*
X4789680Y5939538D01*
X4839464Y6058918D02*
G01*
X4896614Y6058918D01*
X4865372Y6017262D01*
X4881120Y6017262D01*
X4891534Y6012182D01*
X4896614Y6007102D01*
X4901948Y5991354D01*
X4901948Y5980940D01*
X4896614Y5965446D01*
X4886200Y5955032D01*
X4870706Y5949952D01*
X4855212Y5949952D01*
X4839464Y5955032D01*
X4834384Y5960112D01*
X4829050Y5970526D01*
X3612644Y6071618D02*
G01*
X3602230Y6066538D01*
X3591816Y6056124D01*
X3586482Y6045710D01*
X3581402Y6029962D01*
X3581402Y6004054D01*
X3586482Y5988560D01*
X3591816Y5978146D01*
X3602230Y5967732D01*
X3612644Y5962652D01*
X3633472Y5962652D01*
X3643632Y5967732D01*
X3654046Y5978146D01*
X3659380Y5988560D01*
X3664460Y6004054D01*
X3664460Y6029962D01*
X3659380Y6045710D01*
X3654046Y6056124D01*
X3643632Y6066538D01*
X3633472Y6071618D01*
X3612644Y6071618D01*
X3628138Y5983226D02*
G01*
X3659380Y5952238D01*
X3750820Y6071618D02*
G01*
X3698750Y5998974D01*
X3776728Y5998974D01*
X3750820Y6071618D02*
G01*
X3750820Y5962652D01*
X7937500Y6020815D02*
G01*
X7937500Y5911850D01*
X7937500Y6020815D02*
G01*
X7984236Y6020815D01*
X7999729Y6015736D01*
X8005063Y6010402D01*
X8010143Y5999987D01*
X8010143Y5989573D01*
X8005063Y5979160D01*
X7999729Y5974079D01*
X7984236Y5969000D01*
X7937500Y5969000D01*
X7973822Y5969000D02*
G01*
X8010143Y5911850D01*
X8044434Y5999987D02*
G01*
X8054847Y6005321D01*
X8070595Y6020815D01*
X8070595Y5911850D01*
X5461000Y6033515D02*
G01*
X5461000Y5924550D01*
X5461000Y6033515D02*
G01*
X5507736Y6033515D01*
X5523229Y6028436D01*
X5528563Y6023102D01*
X5533643Y6012687D01*
X5533643Y6002273D01*
X5528563Y5991860D01*
X5523229Y5986779D01*
X5507736Y5981700D01*
X5461000Y5981700D01*
X5497322Y5981700D02*
G01*
X5533643Y5924550D01*
X5573268Y6007607D02*
G01*
X5573268Y6012687D01*
X5578347Y6023102D01*
X5583681Y6028436D01*
X5594095Y6033515D01*
X5614670Y6033515D01*
X5625084Y6028436D01*
X5630418Y6023102D01*
X5635497Y6012687D01*
X5635497Y6002273D01*
X5630418Y5991860D01*
X5620004Y5976365D01*
X5567934Y5924550D01*
X5640831Y5924550D01*
X5321297Y4761486D02*
G01*
X5321297Y4870452D01*
X5321297Y4761486D02*
G01*
X5274561Y4761486D01*
X5259067Y4766566D01*
X5253733Y4771900D01*
X5248653Y4782314D01*
X5248653Y4792728D01*
X5253733Y4803142D01*
X5259067Y4808222D01*
X5274561Y4813302D01*
X5321297Y4813302D01*
X5284975Y4813302D02*
G01*
X5248653Y4870452D01*
X5203949Y4761486D02*
G01*
X5146799Y4761486D01*
X5177787Y4803142D01*
X5162293Y4803142D01*
X5151879Y4808222D01*
X5146799Y4813302D01*
X5141465Y4829050D01*
X5141465Y4839464D01*
X5146799Y4854958D01*
X5157213Y4865372D01*
X5172707Y4870452D01*
X5188201Y4870452D01*
X5203949Y4865372D01*
X5209029Y4860292D01*
X5214363Y4849878D01*
X2730502Y6071613D02*
G01*
X2730502Y5962647D01*
X2730502Y6071613D02*
G01*
X2777238Y6071613D01*
X2792732Y6066533D01*
X2798066Y6061199D01*
X2803146Y6050785D01*
X2803146Y6040371D01*
X2798066Y6029957D01*
X2792732Y6024877D01*
X2777238Y6019797D01*
X2730502Y6019797D01*
X2766824Y6019797D02*
G01*
X2803146Y5962647D01*
X2889506Y6071613D02*
G01*
X2837436Y5998969D01*
X2915414Y5998969D01*
X2889506Y6071613D02*
G01*
X2889506Y5962647D01*
X3492500Y8662415D02*
G01*
X3492500Y8553450D01*
X3492500Y8662415D02*
G01*
X3539236Y8662415D01*
X3554729Y8657336D01*
X3560063Y8652002D01*
X3565143Y8641587D01*
X3565143Y8631174D01*
X3560063Y8620760D01*
X3554729Y8615679D01*
X3539236Y8610600D01*
X3492500Y8610600D01*
X3528822Y8610600D02*
G01*
X3565143Y8553450D01*
X3661918Y8662415D02*
G01*
X3609847Y8662415D01*
X3604768Y8615679D01*
X3609847Y8620760D01*
X3625595Y8626094D01*
X3641090Y8626094D01*
X3656584Y8620760D01*
X3666997Y8610600D01*
X3672331Y8594852D01*
X3672331Y8584437D01*
X3666997Y8568944D01*
X3656584Y8558529D01*
X3641090Y8553450D01*
X3625595Y8553450D01*
X3609847Y8558529D01*
X3604768Y8563610D01*
X3599434Y8574024D01*
X3492500Y8230615D02*
G01*
X3492500Y8121650D01*
X3492500Y8230615D02*
G01*
X3539236Y8230615D01*
X3554729Y8225536D01*
X3560063Y8220202D01*
X3565143Y8209787D01*
X3565143Y8199373D01*
X3560063Y8188960D01*
X3554729Y8183879D01*
X3539236Y8178800D01*
X3492500Y8178800D01*
X3528822Y8178800D02*
G01*
X3565143Y8121650D01*
X3661918Y8215121D02*
G01*
X3656584Y8225536D01*
X3641090Y8230615D01*
X3630675Y8230615D01*
X3615181Y8225536D01*
X3604768Y8209787D01*
X3599434Y8183879D01*
X3599434Y8157971D01*
X3604768Y8137144D01*
X3615181Y8126729D01*
X3630675Y8121650D01*
X3636009Y8121650D01*
X3651504Y8126729D01*
X3661918Y8137144D01*
X3666997Y8152637D01*
X3666997Y8157971D01*
X3661918Y8173465D01*
X3651504Y8183879D01*
X3636009Y8188960D01*
X3630675Y8188960D01*
X3615181Y8183879D01*
X3604768Y8173465D01*
X3599434Y8157971D01*
X5194300Y7392415D02*
G01*
X5194300Y7283450D01*
X5194300Y7392415D02*
G01*
X5241036Y7392415D01*
X5256529Y7387336D01*
X5261863Y7382002D01*
X5266943Y7371587D01*
X5266943Y7361173D01*
X5261863Y7350760D01*
X5256529Y7345679D01*
X5241036Y7340600D01*
X5194300Y7340600D01*
X5230622Y7340600D02*
G01*
X5266943Y7283450D01*
X5374131Y7392415D02*
G01*
X5322061Y7283450D01*
X5301234Y7392415D02*
G01*
X5374131Y7392415D01*
X6210300Y7392415D02*
G01*
X6210300Y7283450D01*
X6210300Y7392415D02*
G01*
X6257036Y7392415D01*
X6272529Y7387336D01*
X6277863Y7382002D01*
X6282943Y7371587D01*
X6282943Y7361173D01*
X6277863Y7350760D01*
X6272529Y7345679D01*
X6257036Y7340600D01*
X6210300Y7340600D01*
X6246622Y7340600D02*
G01*
X6282943Y7283450D01*
X6343395Y7392415D02*
G01*
X6327647Y7387336D01*
X6322568Y7376921D01*
X6322568Y7366508D01*
X6327647Y7356094D01*
X6338061Y7350760D01*
X6358890Y7345679D01*
X6374384Y7340600D01*
X6384797Y7330186D01*
X6390131Y7319771D01*
X6390131Y7304023D01*
X6384797Y7293610D01*
X6379718Y7288529D01*
X6363970Y7283450D01*
X6343395Y7283450D01*
X6327647Y7288529D01*
X6322568Y7293610D01*
X6317234Y7304023D01*
X6317234Y7319771D01*
X6322568Y7330186D01*
X6332981Y7340600D01*
X6348475Y7345679D01*
X6369304Y7350760D01*
X6379718Y7356094D01*
X6384797Y7366508D01*
X6384797Y7376921D01*
X6379718Y7387336D01*
X6363970Y7392415D01*
X6343395Y7392415D01*
X7226300Y7392415D02*
G01*
X7226300Y7283450D01*
X7226300Y7392415D02*
G01*
X7273036Y7392415D01*
X7288529Y7387336D01*
X7293863Y7382002D01*
X7298943Y7371587D01*
X7298943Y7361173D01*
X7293863Y7350760D01*
X7288529Y7345679D01*
X7273036Y7340600D01*
X7226300Y7340600D01*
X7262622Y7340600D02*
G01*
X7298943Y7283450D01*
X7400797Y7356094D02*
G01*
X7395718Y7340600D01*
X7385304Y7330186D01*
X7369809Y7324852D01*
X7364475Y7324852D01*
X7348981Y7330186D01*
X7338568Y7340600D01*
X7333234Y7356094D01*
X7333234Y7361173D01*
X7338568Y7376921D01*
X7348981Y7387336D01*
X7364475Y7392415D01*
X7369809Y7392415D01*
X7385304Y7387336D01*
X7395718Y7376921D01*
X7400797Y7356094D01*
X7400797Y7330186D01*
X7395718Y7304023D01*
X7385304Y7288529D01*
X7369809Y7283450D01*
X7359395Y7283450D01*
X7343647Y7288529D01*
X7338568Y7298944D01*
X3505200Y6833615D02*
G01*
X3505200Y6724650D01*
X3505200Y6833615D02*
G01*
X3551936Y6833615D01*
X3567429Y6828536D01*
X3572763Y6823202D01*
X3577843Y6812787D01*
X3577843Y6802373D01*
X3572763Y6791960D01*
X3567429Y6786879D01*
X3551936Y6781800D01*
X3505200Y6781800D01*
X3541522Y6781800D02*
G01*
X3577843Y6724650D01*
X3612134Y6812787D02*
G01*
X3622547Y6818121D01*
X3638295Y6833615D01*
X3638295Y6724650D01*
X3703574Y6833615D02*
G01*
X3688079Y6828536D01*
X3677665Y6812787D01*
X3672586Y6786879D01*
X3672586Y6771386D01*
X3677665Y6745223D01*
X3688079Y6729729D01*
X3703574Y6724650D01*
X3713988Y6724650D01*
X3729736Y6729729D01*
X3740150Y6745223D01*
X3745229Y6771386D01*
X3745229Y6786879D01*
X3740150Y6812787D01*
X3729736Y6828536D01*
X3713988Y6833615D01*
X3703574Y6833615D01*
X3505200Y7265415D02*
G01*
X3505200Y7156450D01*
X3505200Y7265415D02*
G01*
X3551936Y7265415D01*
X3567429Y7260336D01*
X3572763Y7255002D01*
X3577843Y7244587D01*
X3577843Y7234173D01*
X3572763Y7223760D01*
X3567429Y7218679D01*
X3551936Y7213600D01*
X3505200Y7213600D01*
X3541522Y7213600D02*
G01*
X3577843Y7156450D01*
X3612134Y7244587D02*
G01*
X3622547Y7249921D01*
X3638295Y7265415D01*
X3638295Y7156450D01*
X3672586Y7244587D02*
G01*
X3683000Y7249921D01*
X3698493Y7265415D01*
X3698493Y7156450D01*
X2592577Y8251444D02*
G01*
X2582163Y8241029D01*
X2577084Y8225536D01*
X2577084Y8204708D01*
X2582163Y8189213D01*
X2592577Y8178800D01*
X2602991Y8178800D01*
X2613406Y8183879D01*
X2618740Y8189213D01*
X2623820Y8199628D01*
X2634234Y8230870D01*
X2639313Y8241029D01*
X2644647Y8246363D01*
X2655061Y8251444D01*
X2670556Y8251444D01*
X2680970Y8241029D01*
X2686050Y8225536D01*
X2686050Y8204708D01*
X2680970Y8189213D01*
X2670556Y8178800D01*
X2577084Y8285734D02*
G01*
X2686050Y8285734D01*
X2577084Y8285734D02*
G01*
X2577084Y8353297D01*
X2628900Y8285734D02*
G01*
X2628900Y8327389D01*
X2686050Y8285734D02*
G01*
X2686050Y8353297D01*
X2577084Y8387587D02*
G01*
X2686050Y8387587D01*
X2577084Y8387587D02*
G01*
X2686050Y8460486D01*
X2577084Y8460486D02*
G01*
X2686050Y8460486D01*
X2592577Y8567420D02*
G01*
X2582163Y8557005D01*
X2577084Y8541512D01*
X2577084Y8520684D01*
X2582163Y8505189D01*
X2592577Y8494776D01*
X2602991Y8494776D01*
X2613406Y8499855D01*
X2618740Y8505189D01*
X2623820Y8515350D01*
X2634234Y8546592D01*
X2639313Y8557005D01*
X2644647Y8562339D01*
X2655061Y8567420D01*
X2670556Y8567420D01*
X2680970Y8557005D01*
X2686050Y8541512D01*
X2686050Y8520684D01*
X2680970Y8505189D01*
X2670556Y8494776D01*
X2597911Y8601710D02*
G01*
X2592577Y8612124D01*
X2577084Y8627618D01*
X2686050Y8627618D01*
X2592577Y6854444D02*
G01*
X2582163Y6844029D01*
X2577084Y6828536D01*
X2577084Y6807708D01*
X2582163Y6792213D01*
X2592577Y6781800D01*
X2602991Y6781800D01*
X2613406Y6786879D01*
X2618740Y6792213D01*
X2623820Y6802628D01*
X2634234Y6833870D01*
X2639313Y6844029D01*
X2644647Y6849363D01*
X2655061Y6854444D01*
X2670556Y6854444D01*
X2680970Y6844029D01*
X2686050Y6828536D01*
X2686050Y6807708D01*
X2680970Y6792213D01*
X2670556Y6781800D01*
X2577084Y6888734D02*
G01*
X2686050Y6888734D01*
X2577084Y6888734D02*
G01*
X2577084Y6956297D01*
X2628900Y6888734D02*
G01*
X2628900Y6930389D01*
X2686050Y6888734D02*
G01*
X2686050Y6956297D01*
X2577084Y6990587D02*
G01*
X2686050Y6990587D01*
X2577084Y6990587D02*
G01*
X2686050Y7063486D01*
X2577084Y7063486D02*
G01*
X2686050Y7063486D01*
X2592577Y7170420D02*
G01*
X2582163Y7160005D01*
X2577084Y7144512D01*
X2577084Y7123684D01*
X2582163Y7108189D01*
X2592577Y7097776D01*
X2602991Y7097776D01*
X2613406Y7102855D01*
X2618740Y7108189D01*
X2623820Y7118350D01*
X2634234Y7149592D01*
X2639313Y7160005D01*
X2644647Y7165339D01*
X2655061Y7170420D01*
X2670556Y7170420D01*
X2680970Y7160005D01*
X2686050Y7144512D01*
X2686050Y7123684D01*
X2680970Y7108189D01*
X2670556Y7097776D01*
X2602991Y7209789D02*
G01*
X2597911Y7209789D01*
X2587497Y7215123D01*
X2582163Y7220204D01*
X2577084Y7230618D01*
X2577084Y7251445D01*
X2582163Y7261860D01*
X2587497Y7266939D01*
X2597911Y7272273D01*
X2608325Y7272273D01*
X2618740Y7266939D01*
X2634234Y7256779D01*
X2686050Y7204710D01*
X2686050Y7277354D01*
X3644912Y8863088D02*
G01*
X3644912Y8941066D01*
X3639832Y8956560D01*
X3629418Y8966974D01*
X3613670Y8972054D01*
X3603256Y8972054D01*
X3587762Y8966974D01*
X3577348Y8956560D01*
X3572268Y8941066D01*
X3572268Y8863088D01*
X3537978Y8883916D02*
G01*
X3527564Y8878582D01*
X3511816Y8863088D01*
X3511816Y8972054D01*
X7569187Y5792228D02*
G01*
X7569187Y5714250D01*
X7574267Y5698756D01*
X7584681Y5688342D01*
X7600429Y5683262D01*
X7610843Y5683262D01*
X7626337Y5688342D01*
X7636751Y5698756D01*
X7641831Y5714250D01*
X7641831Y5792228D01*
X7681455Y5766320D02*
G01*
X7681455Y5771400D01*
X7686535Y5781814D01*
X7691869Y5787148D01*
X7702283Y5792228D01*
X7722857Y5792228D01*
X7733271Y5787148D01*
X7738605Y5781814D01*
X7743685Y5771400D01*
X7743685Y5760986D01*
X7738605Y5750572D01*
X7728191Y5735078D01*
X7676121Y5683262D01*
X7749019Y5683262D01*
X6438887Y5792228D02*
G01*
X6438887Y5714250D01*
X6443967Y5698756D01*
X6454381Y5688342D01*
X6470129Y5683262D01*
X6480543Y5683262D01*
X6496037Y5688342D01*
X6506451Y5698756D01*
X6511531Y5714250D01*
X6511531Y5792228D01*
X6556235Y5792228D02*
G01*
X6613385Y5792228D01*
X6582397Y5750572D01*
X6597891Y5750572D01*
X6608305Y5745492D01*
X6613385Y5740412D01*
X6618719Y5724664D01*
X6618719Y5714250D01*
X6613385Y5698756D01*
X6602971Y5688342D01*
X6587477Y5683262D01*
X6571983Y5683262D01*
X6556235Y5688342D01*
X6551155Y5693422D01*
X6545821Y5703836D01*
X3746512Y5804903D02*
G01*
X3746512Y5726925D01*
X3751592Y5711431D01*
X3762006Y5701017D01*
X3777754Y5695937D01*
X3788168Y5695937D01*
X3803662Y5701017D01*
X3814076Y5711431D01*
X3819156Y5726925D01*
X3819156Y5804903D01*
X3905516Y5804903D02*
G01*
X3853446Y5732259D01*
X3931424Y5732259D01*
X3905516Y5804903D02*
G01*
X3905516Y5695937D01*
X4864112Y5792203D02*
G01*
X4864112Y5714225D01*
X4869192Y5698731D01*
X4879606Y5688317D01*
X4895354Y5683237D01*
X4905768Y5683237D01*
X4921262Y5688317D01*
X4931676Y5698731D01*
X4936756Y5714225D01*
X4936756Y5792203D01*
X5033530Y5792203D02*
G01*
X4981460Y5792203D01*
X4976380Y5745467D01*
X4981460Y5750547D01*
X4997208Y5755881D01*
X5012702Y5755881D01*
X5028196Y5750547D01*
X5038610Y5740387D01*
X5043944Y5724639D01*
X5043944Y5714225D01*
X5038610Y5698731D01*
X5028196Y5688317D01*
X5012702Y5683237D01*
X4997208Y5683237D01*
X4981460Y5688317D01*
X4976380Y5693397D01*
X4971046Y5703811D01*
D11*
X7213600Y4762500D02*
G01*
X7404100Y4762500D01*
X7404100Y5016500D01*
X6134100Y5016500D01*
X6134100Y4762500D01*
D12*
X6134100Y4762500D02*
G01*
X7213600Y4762500D01*
D11*
X4457700Y4762500D02*
G01*
X4648200Y4762500D01*
X4648200Y5016500D01*
X3378200Y5016500D01*
X3378200Y4762500D01*
D12*
X3378200Y4762500D02*
G01*
X4457700Y4762500D01*
D11*
X8115300Y9537700D02*
G01*
X8115300Y9537700D01*
X8115300Y9283700D01*
X4305300Y9283700D01*
X4305300Y9537700D01*
X4495800Y9537700D01*
D13*
X8115300Y9537700D02*
G01*
X4495800Y9537700D01*
D11*
X4305300Y6223000D02*
G01*
X4305300Y6223000D01*
X4305300Y6477000D01*
X8115300Y6477000D01*
X8115300Y6223000D01*
X7924800Y6223000D01*
D13*
X4305300Y6223000D02*
G01*
X7924800Y6223000D01*
D11*
X4305300Y8763000D02*
G01*
X4305300Y8763000D01*
X4305300Y9017000D01*
X8115300Y9017000D01*
X8115300Y8763000D01*
X7924800Y8763000D01*
D13*
X4305300Y8763000D02*
G01*
X7924800Y8763000D01*
D11*
X2971800Y7251700D02*
G01*
X2720340Y7251700D01*
X2720340Y7759700D01*
X2971800Y7759700D01*
X2971800Y7251700D01*
X2971800Y9029700D02*
G01*
X2720340Y9029700D01*
X2720340Y9537700D01*
X2971800Y9537700D01*
X2971800Y9029700D01*
D14*
X7556500Y7909844D02*
G01*
X7556500Y7685755D01*
X6981286Y8102600D02*
G01*
X7471313Y8102600D01*
X6896100Y7909844D02*
G01*
X6896100Y7685755D01*
X6981286Y7493000D02*
G01*
X7471313Y7493000D01*
X6540500Y7909844D02*
G01*
X6540500Y7685755D01*
X5965286Y8102600D02*
G01*
X6455313Y8102600D01*
X5880100Y7909844D02*
G01*
X5880100Y7685755D01*
X5965286Y7493000D02*
G01*
X6455313Y7493000D01*
X5524500Y7909844D02*
G01*
X5524500Y7685755D01*
X4949286Y8102600D02*
G01*
X5439313Y8102600D01*
X4864100Y7909844D02*
G01*
X4864100Y7685755D01*
X4949286Y7493000D02*
G01*
X5439313Y7493000D01*
X7398890Y5666612D02*
G01*
X7002909Y5666612D01*
X6281290Y5666612D02*
G01*
X5885309Y5666612D01*
X4642990Y5666612D02*
G01*
X4247009Y5666612D01*
X3525390Y5666612D02*
G01*
X3129409Y5666612D01*
X8001000Y5638800D02*
G01*
X8001000Y5664200D01*
X8001000Y5130800D02*
G01*
X8001000Y5105400D01*
X8001000Y5638800D02*
G01*
X8077200Y5638800D01*
X7924800Y5638800D02*
G01*
X8001000Y5638800D01*
X7924800Y5130800D02*
G01*
X7924800Y5638800D01*
X8001000Y5130800D02*
G01*
X7924800Y5130800D01*
X8077200Y5130800D02*
G01*
X8001000Y5130800D01*
X8077200Y5638800D02*
G01*
X8077200Y5130800D01*
X5537200Y5143500D02*
G01*
X5537200Y5118100D01*
X5537200Y5651500D02*
G01*
X5537200Y5676900D01*
X5537200Y5143500D02*
G01*
X5461000Y5143500D01*
X5613400Y5143500D02*
G01*
X5537200Y5143500D01*
X5613400Y5651500D02*
G01*
X5613400Y5143500D01*
X5537200Y5651500D02*
G01*
X5613400Y5651500D01*
X5461000Y5651500D02*
G01*
X5537200Y5651500D01*
X5461000Y5143500D02*
G01*
X5461000Y5651500D01*
X5245100Y5143500D02*
G01*
X5245100Y5118100D01*
X5245100Y5651500D02*
G01*
X5245100Y5676900D01*
X5245100Y5143500D02*
G01*
X5168900Y5143500D01*
X5321300Y5143500D02*
G01*
X5245100Y5143500D01*
X5321300Y5651500D02*
G01*
X5321300Y5143500D01*
X5245100Y5651500D02*
G01*
X5321300Y5651500D01*
X5168900Y5651500D02*
G01*
X5245100Y5651500D01*
X5168900Y5143500D02*
G01*
X5168900Y5651500D01*
X2794000Y5156200D02*
G01*
X2794000Y5130800D01*
X2794000Y5664200D02*
G01*
X2794000Y5689600D01*
X2794000Y5156200D02*
G01*
X2717800Y5156200D01*
X2870200Y5156200D02*
G01*
X2794000Y5156200D01*
X2870200Y5664200D02*
G01*
X2870200Y5156200D01*
X2794000Y5664200D02*
G01*
X2870200Y5664200D01*
X2717800Y5664200D02*
G01*
X2794000Y5664200D01*
X2717800Y5156200D02*
G01*
X2717800Y5664200D01*
X3238500Y8420100D02*
G01*
X3213100Y8420100D01*
X3746500Y8420100D02*
G01*
X3771900Y8420100D01*
X3238500Y8420100D02*
G01*
X3238500Y8496300D01*
X3238500Y8343900D02*
G01*
X3238500Y8420100D01*
X3746500Y8343900D02*
G01*
X3238500Y8343900D01*
X3746500Y8420100D02*
G01*
X3746500Y8343900D01*
X3746500Y8496300D02*
G01*
X3746500Y8420100D01*
X3238500Y8496300D02*
G01*
X3746500Y8496300D01*
X3238500Y7988300D02*
G01*
X3213100Y7988300D01*
X3746500Y7988300D02*
G01*
X3771900Y7988300D01*
X3238500Y7988300D02*
G01*
X3238500Y8064500D01*
X3238500Y7912100D02*
G01*
X3238500Y7988300D01*
X3746500Y7912100D02*
G01*
X3238500Y7912100D01*
X3746500Y7988300D02*
G01*
X3746500Y7912100D01*
X3746500Y8064500D02*
G01*
X3746500Y7988300D01*
X3238500Y8064500D02*
G01*
X3746500Y8064500D01*
X4940300Y7150100D02*
G01*
X4914900Y7150100D01*
X5448300Y7150100D02*
G01*
X5473700Y7150100D01*
X4940300Y7150100D02*
G01*
X4940300Y7226300D01*
X4940300Y7073900D02*
G01*
X4940300Y7150100D01*
X5448300Y7073900D02*
G01*
X4940300Y7073900D01*
X5448300Y7150100D02*
G01*
X5448300Y7073900D01*
X5448300Y7226300D02*
G01*
X5448300Y7150100D01*
X4940300Y7226300D02*
G01*
X5448300Y7226300D01*
X5956300Y7150100D02*
G01*
X5930900Y7150100D01*
X6464300Y7150100D02*
G01*
X6489700Y7150100D01*
X5956300Y7150100D02*
G01*
X5956300Y7226300D01*
X5956300Y7073900D02*
G01*
X5956300Y7150100D01*
X6464300Y7073900D02*
G01*
X5956300Y7073900D01*
X6464300Y7150100D02*
G01*
X6464300Y7073900D01*
X6464300Y7226300D02*
G01*
X6464300Y7150100D01*
X5956300Y7226300D02*
G01*
X6464300Y7226300D01*
X6972300Y7150100D02*
G01*
X6946900Y7150100D01*
X7480300Y7150100D02*
G01*
X7505700Y7150100D01*
X6972300Y7150100D02*
G01*
X6972300Y7226300D01*
X6972300Y7073900D02*
G01*
X6972300Y7150100D01*
X7480300Y7073900D02*
G01*
X6972300Y7073900D01*
X7480300Y7150100D02*
G01*
X7480300Y7073900D01*
X7480300Y7226300D02*
G01*
X7480300Y7150100D01*
X6972300Y7226300D02*
G01*
X7480300Y7226300D01*
X3251200Y6591300D02*
G01*
X3225800Y6591300D01*
X3759200Y6591300D02*
G01*
X3784600Y6591300D01*
X3251200Y6591300D02*
G01*
X3251200Y6667500D01*
X3251200Y6515100D02*
G01*
X3251200Y6591300D01*
X3759200Y6515100D02*
G01*
X3251200Y6515100D01*
X3759200Y6591300D02*
G01*
X3759200Y6515100D01*
X3759200Y6667500D02*
G01*
X3759200Y6591300D01*
X3251200Y6667500D02*
G01*
X3759200Y6667500D01*
X3251200Y7023100D02*
G01*
X3225800Y7023100D01*
X3759200Y7023100D02*
G01*
X3784600Y7023100D01*
X3251200Y7023100D02*
G01*
X3251200Y7099300D01*
X3251200Y6946900D02*
G01*
X3251200Y7023100D01*
X3759200Y6946900D02*
G01*
X3251200Y6946900D01*
X3759200Y7023100D02*
G01*
X3759200Y6946900D01*
X3759200Y7099300D02*
G01*
X3759200Y7023100D01*
X3251200Y7099300D02*
G01*
X3759200Y7099300D01*
D11*
X2717800Y8331200D02*
G01*
X2717800Y8585200D01*
X2969259Y8585200D01*
X2969259Y7823200D01*
X2717800Y7823200D01*
X2717800Y8331200D01*
X2717800Y6934200D02*
G01*
X2717800Y7188200D01*
X2969259Y7188200D01*
X2969259Y6426200D01*
X2717800Y6426200D01*
X2717800Y6934200D01*
D14*
X4162313Y9050497D02*
G01*
X3102112Y9050497D01*
X3102112Y9530306D01*
X4162313Y9530306D01*
X4162313Y9051005D01*
X4162313Y9050497D01*
X3102216Y9110413D02*
G01*
X4162209Y9110413D01*
X6797786Y5643402D02*
G01*
X7857987Y5643402D01*
X7857987Y5163593D01*
X6797786Y5163593D01*
X6797786Y5642894D01*
X6797786Y5643402D01*
X7857883Y5583486D02*
G01*
X6797890Y5583486D01*
X5680186Y5643402D02*
G01*
X6740387Y5643402D01*
X6740387Y5163593D01*
X5680186Y5163593D01*
X5680186Y5642894D01*
X5680186Y5643402D01*
X6740283Y5583486D02*
G01*
X5680290Y5583486D01*
X2924286Y5643402D02*
G01*
X3984487Y5643402D01*
X3984487Y5163593D01*
X2924286Y5163593D01*
X2924286Y5642894D01*
X2924286Y5643402D01*
X3984383Y5583486D02*
G01*
X2924390Y5583486D01*
X4041886Y5643402D02*
G01*
X5102087Y5643402D01*
X5102087Y5163593D01*
X4041886Y5163593D01*
X4041886Y5642894D01*
X4041886Y5643402D01*
X5101983Y5583486D02*
G01*
X4041990Y5583486D01*
G75*
G01*
X7399020Y5666486D02*
G03*
X7002780Y5666486I-198120J149840D01*
G75*
G01*
X6281420Y5666486D02*
G03*
X5885180Y5666486I-198120J149840D01*
G75*
G01*
X4643120Y5666486D02*
G03*
X4246880Y5666486I-198120J149840D01*
G75*
G01*
X3525520Y5666486D02*
G03*
X3129280Y5666486I-198120J149840D01*
D15*
G75*
G01*
X3909210Y9592904D02*
G03*
X3908956Y9592904I-127J20000D01*
G75*
G01*
X7050890Y5100996D02*
G03*
X7051144Y5100996I127J-20000D01*
G75*
G01*
X5933290Y5100996D02*
G03*
X5933544Y5100996I127J-20000D01*
G75*
G01*
X3177390Y5100996D02*
G03*
X3177644Y5100996I127J-20000D01*
G75*
G01*
X4294990Y5100996D02*
G03*
X4295244Y5100996I127J-20000D01*
D14*
G75*
G01
X7086600Y7975600D02*
G03X7086600Y7975600I-50800J0D01*
G75*
G01
X7073900Y7620000D02*
G03X7073900Y7620000I-50800J0D01*
G75*
G01
X7467600Y7975600D02*
G03X7467600Y7975600I-50800J0D01*
G75*
G01
X7454900Y7620000D02*
G03X7454900Y7620000I-50800J0D01*
G75*
G01
X7340600Y7797800D02*
G03X7340600Y7797800I-114300J0D01*
G75*
G01
X7376414Y7797800D02*
G03X7376414Y7797800I-150114J0D01*
G75*
G01
X6070600Y7975600D02*
G03X6070600Y7975600I-50800J0D01*
G75*
G01
X6057900Y7620000D02*
G03X6057900Y7620000I-50800J0D01*
G75*
G01
X6451600Y7975600D02*
G03X6451600Y7975600I-50800J0D01*
G75*
G01
X6438900Y7620000D02*
G03X6438900Y7620000I-50800J0D01*
G75*
G01
X6324600Y7797800D02*
G03X6324600Y7797800I-114300J0D01*
G75*
G01
X6360414Y7797800D02*
G03X6360414Y7797800I-150114J0D01*
G75*
G01
X5054600Y7975600D02*
G03X5054600Y7975600I-50800J0D01*
G75*
G01
X5041900Y7620000D02*
G03X5041900Y7620000I-50800J0D01*
G75*
G01
X5435600Y7975600D02*
G03X5435600Y7975600I-50800J0D01*
G75*
G01
X5422900Y7620000D02*
G03X5422900Y7620000I-50800J0D01*
G75*
G01
X5308600Y7797800D02*
G03X5308600Y7797800I-114300J0D01*
G75*
G01
X5344414Y7797800D02*
G03X5344414Y7797800I-150114J0D01*
M02*
